<?xml version="1.0" encoding="UTF-8"?>
<svg width="24px" height="24px" viewBox="0 0 24 24" version="1.1" xmlns="http://www.w3.org/2000/svg" xmlns:xlink="http://www.w3.org/1999/xlink">
    <!-- Generator: sketchtool 53.2 (72643) - https://sketchapp.com -->
    <title>55C2EB6C-A157-4C9C-8141-54F53AEED414</title>
    <desc>Created with sketchtool.</desc>
    <g id="Desktop" stroke="none" stroke-width="1" fill="none" fill-rule="evenodd">
        <g id="Product-page-expanded" transform="translate(-728.000000, -4280.000000)">
            <g id="footer" transform="translate(0.000000, 4004.000000)">
                <g id="Group-11" transform="translate(126.000000, 64.000000)">
                    <g id="Group-10">
                        <g id="Group-9">
                            <g id="Group-26" transform="translate(601.000000, 0.000000)">
                                <g id="Group-30" transform="translate(0.000000, 176.000000)">
                                    <g id="twitter" transform="translate(1.000000, 36.000000)">
                                        <rect id="Rectangle-Copy-7" fill="#02B0ED" fill-rule="nonzero" x="0" y="0" width="24" height="24" rx="3"></rect>
                                        <path d="M19.801,7.46658396 C19.2587245,7.71459165 18.6713557,7.88628929 18.0573934,7.961407 C18.6852305,7.57389498 19.163913,6.95983747 19.3940043,6.22773783 C18.8066355,6.58663358 18.1568299,6.84775707 17.4607747,6.9872614 C16.9104055,6.3815503 16.1195389,6 15.2477356,6 C13.572347,6 12.2126114,7.40219735 12.2126114,9.12990479 C12.2126114,9.37672014 12.2403611,9.61399673 12.2900793,9.84292691 C9.76485595,9.71176899 7.52984829,8.46815349 6.03020787,6.57232545 C5.7677419,7.03376284 5.61858722,7.57389498 5.61858722,8.14741277 C5.61858722,9.23244643 6.15623779,10.1922839 6.96907296,10.7503012 C6.47189071,10.7371854 6.00708312,10.5929117 5.5966187,10.3592122 L5.5966187,10.3973672 C5.5966187,11.915222 6.64417014,13.181492 8.03049926,13.4712318 C7.77728318,13.5403878 7.50672354,13.5773505 7.23153894,13.5773505 C7.03729099,13.5773505 6.84766799,13.5594653 6.658045,13.5225026 C7.0465409,14.7661181 8.16577908,15.668723 9.4942963,15.6973393 C8.45483853,16.5355576 7.14482111,17.0339577 5.72264862,17.0339577 C5.47868245,17.0339577 5.23934122,17.0196495 5,16.9922256 C6.34586079,17.8817148 7.94031271,18.398 9.6561696,18.398 C15.2384857,18.398 18.2921097,13.6286213 18.2921097,9.49356992 L18.2828598,9.08817273 C18.8794785,8.64581285 19.3940043,8.09614195 19.801,7.46658396 Z" id="Fill-1" fill="#FFFFFF"></path>
                                    </g>
                                </g>
                            </g>
                        </g>
                    </g>
                </g>
            </g>
        </g>
    </g>
</svg>